<svg width="22" height="36" viewBox="0 0 22 36" fill="none" xmlns="http://www.w3.org/2000/svg">
<path d="M22 11.49C22 17.929 17 18.929 17 24.93C17 28.028 13.877 28.289 11.5 28.289C9.447 28.289 4.914 27.51 4.914 24.928C4.914 18.93 0 17.93 0 11.49C0 5.459 5.285 0.57 11.083 0.57C16.883 0.57 22 5.459 22 11.49Z" fill="#FFD983"/>
<path d="M15.167 32.93C15.167 33.758 12.933 35.43 11 35.43C9.067 35.43 6.833 33.758 6.833 32.93C6.833 32.102 9.066 32.43 11 32.43C12.933 32.43 15.167 32.102 15.167 32.93Z" fill="#CCD6DD"/>
<path d="M15.707 10.723C15.316 10.332 14.684 10.332 14.293 10.723L11 14.016L7.707 10.723C7.316 10.332 6.684 10.332 6.293 10.723C5.902 11.114 5.902 11.746 6.293 12.137L10 15.844V26.43C10 26.983 10.448 27.43 11 27.43C11.552 27.43 12 26.983 12 26.43V15.844L15.707 12.137C16.098 11.746 16.098 11.114 15.707 10.723Z" fill="#FFCC4D"/>
<path d="M17 31.43C17 32.534 16.104 33.43 15 33.43H7C5.896 33.43 5 32.534 5 31.43V25.43H17V31.43Z" fill="#99AAB5"/>
<path d="M4.999 32.43C4.519 32.43 4.095 32.083 4.014 31.594C3.923 31.05 4.291 30.534 4.836 30.444L16.836 28.444C17.38 28.346 17.896 28.721 17.986 29.266C18.077 29.81 17.709 30.326 17.164 30.416L5.164 32.416C5.109 32.426 5.053 32.43 4.999 32.43ZM4.999 28.43C4.519 28.43 4.095 28.083 4.014 27.594C3.923 27.05 4.291 26.534 4.836 26.444L16.836 24.444C17.38 24.347 17.896 24.721 17.986 25.266C18.077 25.81 17.709 26.326 17.164 26.416L5.164 28.416C5.109 28.426 5.053 28.43 4.999 28.43Z" fill="#CCD6DD"/>
</svg>
