<svg width="35" height="34" viewBox="0 0 35 34" fill="none" xmlns="http://www.w3.org/2000/svg">
<path d="M35 11.4375C35 7.5715 31.866 4.4375 28 4.4375C26.833 4.4375 25.735 4.7275 24.768 5.2315C22.686 2.4045 19.343 0.5625 15.563 0.5625C10.431 0.5625 6.088 3.9425 4.64 8.5985C1.982 9.2155 0 11.5925 0 14.4375C0 17.4165 2.174 19.8825 5.021 20.3505C5.237 24.2995 8.498 27.4375 12.5 27.4375C14.676 27.4375 16.63 26.5045 18 25.0245C19.37 26.5045 21.323 27.4375 23.5 27.4375C27.643 27.4375 31 24.0805 31 19.9375C31 19.2275 30.895 18.5435 30.711 17.8925C33.23 16.8335 35 14.3425 35 11.4375Z" fill="#BDDDF4"/>
<path d="M4 33.4375C5.65685 33.4375 7 32.0944 7 30.4375C7 28.7806 5.65685 27.4375 4 27.4375C2.34315 27.4375 1 28.7806 1 30.4375C1 32.0944 2.34315 33.4375 4 33.4375Z" fill="#BDDDF4"/>
</svg>
